<svg width="51" height="51" viewBox="0 0 51 51" fill="none" xmlns="http://www.w3.org/2000/svg">
<path d="M25.5 0.5625C11.7287 0.5625 0.5625 11.7287 0.5625 25.5C0.5625 39.2713 11.7287 50.4375 25.5 50.4375C39.2713 50.4375 50.4375 39.2713 50.4375 25.5C50.4375 11.7287 39.2713 0.5625 25.5 0.5625ZM36.1875 26.8359C36.1875 27.0809 35.9871 27.2812 35.7422 27.2812H27.2812V35.7422C27.2812 35.9871 27.0809 36.1875 26.8359 36.1875H24.1641C23.9191 36.1875 23.7188 35.9871 23.7188 35.7422V27.2812H15.2578C15.0129 27.2812 14.8125 27.0809 14.8125 26.8359V24.1641C14.8125 23.9191 15.0129 23.7188 15.2578 23.7188H23.7188V15.2578C23.7188 15.0129 23.9191 14.8125 24.1641 14.8125H26.8359C27.0809 14.8125 27.2812 15.0129 27.2812 15.2578V23.7188H35.7422C35.9871 23.7188 36.1875 23.9191 36.1875 24.1641V26.8359Z" fill="#A8071A"/>
</svg>
