<svg width="21" height="20" viewBox="0 0 21 20" fill="none" xmlns="http://www.w3.org/2000/svg">
<g clip-path="url(#clip0_807_4512)">
<path d="M2.64737 16.4261C2.70362 16.4261 2.75987 16.4207 2.81612 16.4127L7.54675 15.6225C7.603 15.6118 7.65644 15.5877 7.69581 15.5475L19.618 4.19302C19.6441 4.16824 19.6648 4.13881 19.6789 4.10641C19.693 4.074 19.7002 4.03927 19.7002 4.00419C19.7002 3.9691 19.693 3.93437 19.6789 3.90196C19.6648 3.86956 19.6441 3.84013 19.618 3.81535L14.9436 -0.639118C14.8902 -0.690011 14.8199 -0.716797 14.7439 -0.716797C14.668 -0.716797 14.5977 -0.690011 14.5443 -0.639118L2.62206 10.7153C2.57987 10.7555 2.55456 10.8037 2.54331 10.8573L1.71362 15.3627C1.68626 15.5062 1.69604 15.6538 1.74211 15.7929C1.78817 15.932 1.86914 16.0583 1.978 16.1609C2.16362 16.3323 2.39706 16.4261 2.64737 16.4261ZM4.543 11.7546L14.7439 2.04213L16.8055 4.00552L6.60456 13.718L4.10425 14.1386L4.543 11.7546ZM20.1496 18.6761H-0.550439C-1.04825 18.6761 -1.45044 19.0591 -1.45044 19.5332V20.4975C-1.45044 20.6153 -1.34919 20.7118 -1.22544 20.7118H20.8246C20.9483 20.7118 21.0496 20.6153 21.0496 20.4975V19.5332C21.0496 19.0591 20.6474 18.6761 20.1496 18.6761Z" fill="black" fill-opacity="0.85"/>
</g>
<defs>
<clipPath id="clip0_807_4512">
<rect width="21" height="20" fill="white"/>
</clipPath>
</defs>
</svg>
