<svg width="25" height="26" viewBox="0 0 25 26" fill="none" xmlns="http://www.w3.org/2000/svg">
<path d="M15.0462 7.85269L8.18235 12.8192C8.15383 12.8398 8.13061 12.8668 8.11458 12.8981C8.09856 12.9294 8.09021 12.964 8.09021 12.9992C8.09021 13.0343 8.09856 13.069 8.11458 13.1003C8.13061 13.1316 8.15383 13.1586 8.18235 13.1791L15.0462 18.1457C15.1941 18.2517 15.4005 18.1457 15.4005 17.9643V16.6557C15.4005 16.3711 15.2638 16.1005 15.0322 15.9331L10.9753 13.0006L15.0322 10.0653C15.2638 9.89789 15.4005 9.63004 15.4005 9.34265V8.03405C15.4005 7.85269 15.1941 7.74667 15.0462 7.85269Z" fill="#262626"/>
<path d="M12.5 0.5C5.5971 0.5 0 6.0971 0 13C0 19.9029 5.5971 25.5 12.5 25.5C19.4029 25.5 25 19.9029 25 13C25 6.0971 19.4029 0.5 12.5 0.5ZM12.5 23.3795C6.76897 23.3795 2.12054 18.731 2.12054 13C2.12054 7.26897 6.76897 2.62054 12.5 2.62054C18.231 2.62054 22.8795 7.26897 22.8795 13C22.8795 18.731 18.231 23.3795 12.5 23.3795Z" fill="#262626"/>
</svg>
