<svg width="25" height="26" viewBox="0 0 25 26" fill="none" xmlns="http://www.w3.org/2000/svg">
<path d="M19.9219 19.5H19.3359V10.8672C19.3359 7.28457 16.7896 4.32148 13.4766 3.82891V2.84375C13.4766 2.28262 13.0396 1.82812 12.5 1.82812C11.9604 1.82812 11.5234 2.28262 11.5234 2.84375V3.82891C8.21045 4.32148 5.66406 7.28457 5.66406 10.8672V19.5H5.07812C4.646 19.5 4.29688 19.8631 4.29688 20.3125V21.125C4.29688 21.2367 4.38477 21.3281 4.49219 21.3281H9.76562C9.76562 22.8973 10.9912 24.1719 12.5 24.1719C14.0088 24.1719 15.2344 22.8973 15.2344 21.3281H20.5078C20.6152 21.3281 20.7031 21.2367 20.7031 21.125V20.3125C20.7031 19.8631 20.354 19.5 19.9219 19.5ZM12.5 22.5469C11.853 22.5469 11.3281 22.001 11.3281 21.3281H13.6719C13.6719 22.001 13.147 22.5469 12.5 22.5469Z" fill="black" fill-opacity="0.85"/>
</svg>
