<svg width="15" height="14" viewBox="0 0 15 14" fill="none" xmlns="http://www.w3.org/2000/svg">
<g clip-path="url(#clip0_1103_4797)">
<rect width="14" height="14" transform="translate(0.981689)" fill="white" fill-opacity="0.01"/>
<g clip-path="url(#clip1_1103_4797)">
<path d="M7.23178 7C7.23178 7.19891 7.3108 7.38968 7.45145 7.53033C7.5921 7.67098 7.78287 7.75 7.98178 7.75C8.18069 7.75 8.37146 7.67098 8.51211 7.53033C8.65276 7.38968 8.73178 7.19891 8.73178 7C8.73178 6.80109 8.65276 6.61032 8.51211 6.46967C8.37146 6.32902 8.18069 6.25 7.98178 6.25C7.78287 6.25 7.5921 6.32902 7.45145 6.46967C7.3108 6.61032 7.23178 6.80109 7.23178 7ZM10.3568 7C10.3568 7.19891 10.4358 7.38968 10.5764 7.53033C10.7171 7.67098 10.9079 7.75 11.1068 7.75C11.3057 7.75 11.4965 7.67098 11.6371 7.53033C11.7778 7.38968 11.8568 7.19891 11.8568 7C11.8568 6.80109 11.7778 6.61032 11.6371 6.46967C11.4965 6.32902 11.3057 6.25 11.1068 6.25C10.9079 6.25 10.7171 6.32902 10.5764 6.46967C10.4358 6.61032 10.3568 6.80109 10.3568 7ZM4.10678 7C4.10678 7.19891 4.1858 7.38968 4.32645 7.53033C4.4671 7.67098 4.65787 7.75 4.85678 7.75C5.05569 7.75 5.24646 7.67098 5.38711 7.53033C5.52776 7.38968 5.60678 7.19891 5.60678 7C5.60678 6.80109 5.52776 6.61032 5.38711 6.46967C5.24646 6.32902 5.05569 6.25 4.85678 6.25C4.65787 6.25 4.4671 6.32902 4.32645 6.46967C4.1858 6.61032 4.10678 6.80109 4.10678 7ZM14.438 4.2875C14.0849 3.44844 13.5787 2.69531 12.9333 2.04844C12.2925 1.40531 11.5318 0.894096 10.6943 0.54375C9.8349 0.182813 8.9224 0 7.98178 0H7.95053C7.00365 0.0046875 6.08647 0.192188 5.22397 0.560938C4.39359 0.914877 3.64 1.427 3.00522 2.06875C2.36615 2.71406 1.86459 3.46406 1.51772 4.3C1.15834 5.16563 0.977091 6.08594 0.981778 7.03281C0.98708 8.11792 1.2438 9.18704 1.73178 10.1562V12.5312C1.73178 12.7219 1.8075 12.9047 1.9423 13.0395C2.07709 13.1743 2.2599 13.25 2.45053 13.25H4.82709C5.7963 13.738 6.86542 13.9947 7.95053 14H7.98334C8.91928 14 9.82709 13.8188 10.6818 13.4641C11.5151 13.1179 12.273 12.6126 12.913 11.9766C13.5583 11.3375 14.0662 10.5906 14.4208 9.75781C14.7896 8.89531 14.9771 7.97813 14.9818 7.03125C14.9865 6.07969 14.8021 5.15625 14.438 4.2875ZM12.0771 11.1313C10.9818 12.2156 9.52865 12.8125 7.98178 12.8125H7.95522C7.01303 12.8078 6.07709 12.5734 5.25053 12.1328L5.11928 12.0625H2.91928V9.8625L2.84897 9.73125C2.40834 8.90469 2.17397 7.96875 2.16928 7.02656C2.16303 5.46875 2.75834 4.00625 3.85053 2.90469C4.94115 1.80312 6.39897 1.19375 7.95678 1.1875H7.98334C8.76459 1.1875 9.5224 1.33906 10.2365 1.63906C10.9333 1.93125 11.5583 2.35156 12.0958 2.88906C12.6318 3.425 13.0537 4.05156 13.3458 4.74844C13.649 5.47031 13.8005 6.23594 13.7974 7.02656C13.788 8.58281 13.1771 10.0406 12.0771 11.1313Z" fill="white"/>
</g>
</g>
<defs>
<clipPath id="clip0_1103_4797">
<rect width="14" height="14" fill="white" transform="translate(0.981689)"/>
</clipPath>
<clipPath id="clip1_1103_4797">
<rect width="14" height="14" fill="white" transform="translate(0.981689)"/>
</clipPath>
</defs>
</svg>
