<svg width="20" height="20" viewBox="0 0 20 20" fill="none" xmlns="http://www.w3.org/2000/svg">
<path d="M1.25035 3.70675H12.3218C12.42 3.70675 12.5003 3.6264 12.5003 3.52818V2.27818C12.5003 2.17997 12.42 2.09961 12.3218 2.09961H1.25035C1.15213 2.09961 1.07178 2.17997 1.07178 2.27818V3.52818C1.07178 3.6264 1.15213 3.70675 1.25035 3.70675ZM1.25035 13.171H12.3218C12.42 13.171 12.5003 13.0907 12.5003 12.9925V11.7425C12.5003 11.6443 12.42 11.5639 12.3218 11.5639H1.25035C1.15213 11.5639 1.07178 11.6443 1.07178 11.7425V12.9925C1.07178 13.0907 1.15213 13.171 1.25035 13.171ZM18.7504 16.296H1.25035C1.15213 16.296 1.07178 16.3764 1.07178 16.4746V17.7246C1.07178 17.8228 1.15213 17.9032 1.25035 17.9032H18.7504C18.8486 17.9032 18.9289 17.8228 18.9289 17.7246V16.4746C18.9289 16.3764 18.8486 16.296 18.7504 16.296ZM18.7504 6.83175H1.25035C1.15213 6.83175 1.07178 6.91211 1.07178 7.01032V8.26032C1.07178 8.35854 1.15213 8.4389 1.25035 8.4389H18.7504C18.8486 8.4389 18.9289 8.35854 18.9289 8.26032V7.01032C18.9289 6.91211 18.8486 6.83175 18.7504 6.83175Z" fill="black" fill-opacity="0.85"/>
</svg>
