<svg width="28" height="28" viewBox="0 0 28 28" fill="none" xmlns="http://www.w3.org/2000/svg">
<circle cx="14" cy="14" r="14" fill="white"/>
<g clip-path="url(#clip0_1015_5418)">
<path d="M22.8753 13.9981H21.7503C21.6619 13.9981 21.5896 14.0704 21.5896 14.1588V20.5874H8.41103V7.40883H14.8396C14.928 7.40883 15.0003 7.33651 15.0003 7.24812V6.12312C15.0003 6.03472 14.928 5.9624 14.8396 5.9624H7.60746C7.25188 5.9624 6.9646 6.24968 6.9646 6.60526V21.391C6.9646 21.7466 7.25188 22.0338 7.60746 22.0338H22.3932C22.7488 22.0338 23.036 21.7466 23.036 21.391V14.1588C23.036 14.0704 22.9637 13.9981 22.8753 13.9981Z" fill="black" fill-opacity="0.85"/>
<path d="M11.8642 14.4582L11.8261 16.8468C11.8241 17.0256 11.9687 17.1722 12.1475 17.1722H12.1555L14.5261 17.114C14.5663 17.112 14.6064 17.0959 14.6346 17.0678L22.9897 8.73071C23.052 8.66843 23.052 8.56597 22.9897 8.5037L20.4926 6.00861C20.4604 5.97646 20.4203 5.9624 20.3781 5.9624C20.3359 5.9624 20.2957 5.97847 20.2636 6.00861L11.9104 14.3457C11.8814 14.376 11.8649 14.4162 11.8642 14.4582ZM13.1399 14.9323L20.3781 7.71017L21.2861 8.6162L14.0439 15.8423L13.1259 15.8644L13.1399 14.9323Z" fill="black" fill-opacity="0.85"/>
</g>
<defs>
<clipPath id="clip0_1015_5418">
<rect width="18" height="18" fill="white" transform="translate(6 5)"/>
</clipPath>
</defs>
</svg>
