<svg width="16" height="13" viewBox="0 0 16 13" fill="none" xmlns="http://www.w3.org/2000/svg">
<path d="M15.4306 0.214111H0.573443C0.257371 0.214111 0.00201416 0.469469 0.00201416 0.78554V12.2141C0.00201416 12.5302 0.257371 12.7855 0.573443 12.7855H15.4306C15.7467 12.7855 16.002 12.5302 16.002 12.2141V0.78554C16.002 0.469469 15.7467 0.214111 15.4306 0.214111ZM14.7163 2.19268V11.4998H1.28773V2.19268L0.794871 1.80875L1.49666 0.906969L2.26094 1.50161H13.7449L14.5092 0.906969L15.2109 1.80875L14.7163 2.19268ZM13.7449 1.49983L8.00201 5.96411L2.25916 1.49983L1.49487 0.905183L0.793086 1.80697L1.28594 2.1909L7.38594 6.93375C7.56137 7.07004 7.77719 7.14402 7.99934 7.14402C8.22148 7.14402 8.4373 7.07004 8.61273 6.93375L14.7163 2.19268L15.2092 1.80875L14.5074 0.906969L13.7449 1.49983Z" fill="#BFBFBF"/>
</svg>
