<svg width="24" height="25" viewBox="0 0 24 25" fill="none" xmlns="http://www.w3.org/2000/svg">
<path d="M10.5 4.97656C10.5 5.37439 10.658 5.75592 10.9393 6.03722C11.2206 6.31853 11.6022 6.47656 12 6.47656C12.3978 6.47656 12.7794 6.31853 13.0607 6.03722C13.342 5.75592 13.5 5.37439 13.5 4.97656C13.5 4.57874 13.342 4.19721 13.0607 3.9159C12.7794 3.6346 12.3978 3.47656 12 3.47656C11.6022 3.47656 11.2206 3.6346 10.9393 3.9159C10.658 4.19721 10.5 4.57874 10.5 4.97656ZM10.5 12.4766C10.5 12.8744 10.658 13.2559 10.9393 13.5372C11.2206 13.8185 11.6022 13.9766 12 13.9766C12.3978 13.9766 12.7794 13.8185 13.0607 13.5372C13.342 13.2559 13.5 12.8744 13.5 12.4766C13.5 12.0787 13.342 11.6972 13.0607 11.4159C12.7794 11.1346 12.3978 10.9766 12 10.9766C11.6022 10.9766 11.2206 11.1346 10.9393 11.4159C10.658 11.6972 10.5 12.0787 10.5 12.4766ZM10.5 19.9766C10.5 20.3744 10.658 20.7559 10.9393 21.0372C11.2206 21.3185 11.6022 21.4766 12 21.4766C12.3978 21.4766 12.7794 21.3185 13.0607 21.0372C13.342 20.7559 13.5 20.3744 13.5 19.9766C13.5 19.5787 13.342 19.1972 13.0607 18.9159C12.7794 18.6346 12.3978 18.4766 12 18.4766C11.6022 18.4766 11.2206 18.6346 10.9393 18.9159C10.658 19.1972 10.5 19.5787 10.5 19.9766Z" fill="black" fill-opacity="0.85"/>
</svg>
