<svg width="16" height="16" viewBox="0 0 16 16" fill="none" xmlns="http://www.w3.org/2000/svg">
<g clip-path="url(#clip0_1072_4379)">
<rect width="16" height="16" fill="white" fill-opacity="0.01"/>
<path d="M11.1433 4.42547V3.56832C11.1433 3.48975 11.079 3.42547 11.0004 3.42547H4.14328C4.0647 3.42547 4.00042 3.48975 4.00042 3.56832V4.42547C4.00042 4.50404 4.0647 4.56832 4.14328 4.56832H11.0004C11.079 4.56832 11.1433 4.50404 11.1433 4.42547ZM4.14328 5.9969C4.0647 5.9969 4.00042 6.06118 4.00042 6.13975V6.9969C4.00042 7.07547 4.0647 7.13975 4.14328 7.13975H7.42899C7.50756 7.13975 7.57185 7.07547 7.57185 6.9969V6.13975C7.57185 6.06118 7.50756 5.9969 7.42899 5.9969H4.14328ZM10.8576 8.06832C8.7272 8.06832 7.00042 9.79511 7.00042 11.9255C7.00042 14.0558 8.7272 15.7826 10.8576 15.7826C12.9879 15.7826 14.7147 14.0558 14.7147 11.9255C14.7147 9.79511 12.9879 8.06832 10.8576 8.06832ZM12.7772 13.8451C12.2647 14.3576 11.5826 14.6398 10.8576 14.6398C10.1326 14.6398 9.45042 14.3576 8.93792 13.8451C8.42542 13.3326 8.14328 12.6505 8.14328 11.9255C8.14328 11.2005 8.42542 10.5183 8.93792 10.0058C9.45042 9.49332 10.1326 9.21118 10.8576 9.21118C11.5826 9.21118 12.2647 9.49332 12.7772 10.0058C13.2897 10.5183 13.5718 11.2005 13.5718 11.9255C13.5718 12.6505 13.2897 13.3326 12.7772 13.8451ZM12.4468 10.5683H11.6558C11.6093 10.5683 11.5665 10.5898 11.5397 10.6273L10.4058 12.1951L9.99327 11.6255C9.98006 11.6071 9.96262 11.5921 9.94242 11.5819C9.92222 11.5716 9.89986 11.5663 9.8772 11.5665H9.0897C8.97363 11.5665 8.90578 11.6987 8.97363 11.7933L10.2915 13.6165C10.3486 13.6951 10.4647 13.6951 10.5218 13.6165L12.5611 10.7951C12.6308 10.7005 12.5629 10.5683 12.4468 10.5683ZM6.7147 14.0683H2.57185V1.4969H12.5718V7.63975C12.5718 7.71832 12.6361 7.78261 12.7147 7.78261H13.7147C13.7933 7.78261 13.8576 7.71832 13.8576 7.63975V0.78261C13.8576 0.466539 13.6022 0.211182 13.2861 0.211182H1.85756C1.54149 0.211182 1.28613 0.466539 1.28613 0.78261V14.7826C1.28613 15.0987 1.54149 15.354 1.85756 15.354H6.7147C6.79328 15.354 6.85756 15.2898 6.85756 15.2112V14.2112C6.85756 14.1326 6.79328 14.0683 6.7147 14.0683Z" fill="#FFF1F0"/>
</g>
<defs>
<clipPath id="clip0_1072_4379">
<rect width="16" height="16" fill="white"/>
</clipPath>
</defs>
</svg>
