<svg width="27" height="27" viewBox="0 0 27 27" fill="none" xmlns="http://www.w3.org/2000/svg">
<g clip-path="url(#clip0_852_4955)">
<path d="M26.0633 10.6001H18.6347C18.5071 10.6001 18.4026 10.7045 18.4026 10.8322V12.2251C18.4026 12.3527 18.5071 12.4572 18.6347 12.4572H26.0633C26.191 12.4572 26.2955 12.3527 26.2955 12.2251V10.8322C26.2955 10.7045 26.191 10.6001 26.0633 10.6001ZM22.1749 14.5465H18.6347C18.5071 14.5465 18.4026 14.651 18.4026 14.7786V16.1715C18.4026 16.2992 18.5071 16.4036 18.6347 16.4036H22.1749C22.3026 16.4036 22.4071 16.2992 22.4071 16.1715V14.7786C22.4071 14.651 22.3026 14.5465 22.1749 14.5465ZM12.4917 8.00297H11.2352C11.0553 8.00297 10.9102 8.14806 10.9102 8.32797V15.5244C10.9102 15.6289 10.9595 15.7246 11.0437 15.7856L15.3644 18.9369C15.5095 19.0414 15.7126 19.0123 15.8171 18.8673L16.5629 17.8487V17.8458C16.6673 17.7007 16.6354 17.4976 16.4903 17.3931L12.8138 14.7351V8.32797C12.8167 8.14806 12.6687 8.00297 12.4917 8.00297Z" fill="white"/>
<path d="M21.996 18.1926H20.3188C20.1563 18.1926 20.0025 18.2767 19.9154 18.416C19.5463 19.0011 19.1132 19.5432 18.6241 20.0323C17.782 20.8772 16.7836 21.5503 15.6846 22.0142C14.5442 22.4959 13.3342 22.7397 12.0864 22.7397C10.8357 22.7397 9.62568 22.4959 8.48818 22.0142C7.38841 21.55 6.3989 20.8825 5.54867 20.0323C4.69845 19.1821 4.03104 18.1926 3.56675 17.0928C3.08506 15.9553 2.84131 14.7453 2.84131 13.4946C2.84131 12.2439 3.08506 11.0368 3.56675 9.89639C4.03104 8.79661 4.69845 7.8071 5.54867 6.95688C6.3989 6.10665 7.38841 5.43924 8.48818 4.97496C9.62568 4.49326 10.8386 4.24951 12.0864 4.24951C13.3371 4.24951 14.5471 4.49326 15.6846 4.97496C16.7844 5.43924 17.7739 6.10665 18.6241 6.95688C19.1132 7.44602 19.5463 7.98813 19.9154 8.57317C20.0025 8.71246 20.1563 8.79661 20.3188 8.79661H21.996C22.1962 8.79661 22.3239 8.58768 22.2339 8.41067C20.342 4.64706 16.5058 2.20085 12.2228 2.15152C5.95202 2.07317 0.743316 7.20643 0.731709 13.4714C0.720102 19.748 5.80693 24.8406 12.0835 24.8406C16.4217 24.8406 20.3217 22.3857 22.2339 18.5785C22.2543 18.5379 22.264 18.4928 22.262 18.4474C22.26 18.402 22.2465 18.3579 22.2226 18.3192C22.1988 18.2805 22.1655 18.2486 22.1258 18.2264C22.0861 18.2042 22.0414 18.1926 21.996 18.1926Z" fill="white"/>
</g>
<defs>
<clipPath id="clip0_852_4955">
<rect width="26" height="26" fill="white" transform="translate(0.5 0.5)"/>
</clipPath>
</defs>
</svg>
