<svg width="23" height="24" viewBox="0 0 23 24" fill="none" xmlns="http://www.w3.org/2000/svg">
<path d="M21.7067 20.7951L15.0402 14.1287C16.0747 12.7913 16.6343 11.1561 16.6343 9.43624C16.6343 7.37754 15.8309 5.44718 14.378 3.99171C12.9251 2.53624 10.9896 1.73535 8.93344 1.73535C6.8773 1.73535 4.94181 2.53881 3.48891 3.99171C2.03344 5.44461 1.23254 7.37754 1.23254 9.43624C1.23254 11.4924 2.036 13.4279 3.48891 14.8808C4.94181 16.3362 6.87473 17.1371 8.93344 17.1371C10.6533 17.1371 12.2859 16.5775 13.6233 15.5456L20.2897 22.2095C20.3092 22.229 20.3324 22.2445 20.358 22.2551C20.3835 22.2657 20.4109 22.2712 20.4386 22.2712C20.4662 22.2712 20.4936 22.2657 20.5192 22.2551C20.5447 22.2445 20.5679 22.229 20.5875 22.2095L21.7067 21.0928C21.7262 21.0733 21.7417 21.0501 21.7523 21.0245C21.7629 20.999 21.7683 20.9716 21.7683 20.9439C21.7683 20.9163 21.7629 20.8889 21.7523 20.8634C21.7417 20.8378 21.7262 20.8146 21.7067 20.7951ZM12.9995 13.5023C11.9111 14.5881 10.4685 15.1862 8.93344 15.1862C7.39839 15.1862 5.95576 14.5881 4.86737 13.5023C3.78154 12.4139 3.18344 10.9713 3.18344 9.43624C3.18344 7.9012 3.78154 6.456 4.86737 5.37017C5.95576 4.28435 7.39839 3.68624 8.93344 3.68624C10.4685 3.68624 11.9137 4.28178 12.9995 5.37017C14.0853 6.45857 14.6834 7.9012 14.6834 9.43624C14.6834 10.9713 14.0853 12.4165 12.9995 13.5023Z" fill="black" fill-opacity="0.85"/>
</svg>
