<svg width="22" height="23" viewBox="0 0 22 23" fill="none" xmlns="http://www.w3.org/2000/svg">
<path d="M16.8928 15.2321C16.193 15.2321 15.5473 15.4777 15.0414 15.8877L9.95395 12.2071C10.0391 11.7396 10.0391 11.2604 9.95395 10.7929L15.0414 7.11228C15.5473 7.52232 16.193 7.76786 16.8928 7.76786C18.5182 7.76786 19.8392 6.44688 19.8392 4.82143C19.8392 3.19598 18.5182 1.875 16.8928 1.875C15.2673 1.875 13.9464 3.19598 13.9464 4.82143C13.9464 5.10625 13.9856 5.37879 14.0618 5.63906L9.22962 9.13795C8.51265 8.18772 7.37337 7.57143 6.08922 7.57143C3.91868 7.57143 2.16064 9.32947 2.16064 11.5C2.16064 13.6705 3.91868 15.4286 6.08922 15.4286C7.37337 15.4286 8.51265 14.8123 9.22962 13.8621L14.0618 17.3609C13.9856 17.6212 13.9464 17.8962 13.9464 18.1786C13.9464 19.804 15.2673 21.125 16.8928 21.125C18.5182 21.125 19.8392 19.804 19.8392 18.1786C19.8392 16.5531 18.5182 15.2321 16.8928 15.2321ZM16.8928 3.54464C17.5975 3.54464 18.1696 4.11674 18.1696 4.82143C18.1696 5.52612 17.5975 6.09821 16.8928 6.09821C16.1881 6.09821 15.616 5.52612 15.616 4.82143C15.616 4.11674 16.1881 3.54464 16.8928 3.54464ZM6.08922 13.6607C4.89837 13.6607 3.9285 12.6908 3.9285 11.5C3.9285 10.3092 4.89837 9.33929 6.08922 9.33929C7.28006 9.33929 8.24993 10.3092 8.24993 11.5C8.24993 12.6908 7.28006 13.6607 6.08922 13.6607ZM16.8928 19.4554C16.1881 19.4554 15.616 18.8833 15.616 18.1786C15.616 17.4739 16.1881 16.9018 16.8928 16.9018C17.5975 16.9018 18.1696 17.4739 18.1696 18.1786C18.1696 18.8833 17.5975 19.4554 16.8928 19.4554Z" fill="black" fill-opacity="0.85"/>
</svg>
