<svg width="18" height="18" viewBox="0 0 18 18" fill="none" xmlns="http://www.w3.org/2000/svg">
<g clip-path="url(#clip0_809_4594)">
<path d="M17.5582 7.92874L16.9636 1.64883C16.9334 1.32338 16.6743 1.06624 16.3488 1.0341L10.0689 0.439453H10.0609C9.99661 0.439453 9.94638 0.459542 9.90821 0.497712L0.5004 9.90553C0.481777 9.92411 0.467002 9.94619 0.45692 9.97049C0.446839 9.99479 0.44165 10.0208 0.44165 10.0472C0.44165 10.0735 0.446839 10.0995 0.45692 10.1238C0.467002 10.1481 0.481777 10.1702 0.5004 10.1888L7.80888 17.4973C7.84705 17.5354 7.89728 17.5555 7.95152 17.5555C8.00576 17.5555 8.05598 17.5354 8.09415 17.4973L17.502 8.08945C17.5421 8.04727 17.5622 7.98901 17.5582 7.92874ZM7.94951 15.4803L2.51736 10.0482L10.5471 2.01847L15.5091 2.48856L15.9792 7.45061L7.94951 15.4803ZM12.3752 3.85463C11.4008 3.85463 10.6073 4.64816 10.6073 5.62249C10.6073 6.59682 11.4008 7.39035 12.3752 7.39035C13.3495 7.39035 14.143 6.59682 14.143 5.62249C14.143 4.64816 13.3495 3.85463 12.3752 3.85463ZM12.3752 6.26535C12.0196 6.26535 11.7323 5.97807 11.7323 5.62249C11.7323 5.26691 12.0196 4.97963 12.3752 4.97963C12.7308 4.97963 13.018 5.26691 13.018 5.62249C13.018 5.97807 12.7308 6.26535 12.3752 6.26535Z" fill="black" fill-opacity="0.85"/>
</g>
<defs>
<clipPath id="clip0_809_4594">
<rect width="18" height="18" fill="white"/>
</clipPath>
</defs>
</svg>
