<svg width="16" height="16" viewBox="0 0 16 16" fill="none" xmlns="http://www.w3.org/2000/svg">
<g clip-path="url(#clip0_1098_4420)">
<rect width="16" height="16" fill="white" fill-opacity="0.01"/>
<path d="M5.28544 2.14143H5.14258C5.22115 2.14143 5.28544 2.07714 5.28544 1.99857V2.14143H10.714V1.99857C10.714 2.07714 10.7783 2.14143 10.8569 2.14143H10.714V3.42714H11.9997V1.99857C11.9997 1.36821 11.4872 0.855713 10.8569 0.855713H5.14258C4.51222 0.855713 3.99972 1.36821 3.99972 1.99857V3.42714H5.28544V2.14143ZM14.2854 3.42714H1.71401C1.39794 3.42714 1.14258 3.6825 1.14258 3.99857V4.57C1.14258 4.64857 1.20686 4.71286 1.28544 4.71286H2.36401L2.80508 14.0521C2.83365 14.6611 3.33722 15.1414 3.94615 15.1414H12.0533C12.664 15.1414 13.1658 14.6629 13.1944 14.0521L13.6354 4.71286H14.714C14.7926 4.71286 14.8569 4.64857 14.8569 4.57V3.99857C14.8569 3.6825 14.6015 3.42714 14.2854 3.42714ZM11.9158 13.8557H4.08365L3.65151 4.71286H12.3479L11.9158 13.8557Z" fill="black" fill-opacity="0.85"/>
</g>
<defs>
<clipPath id="clip0_1098_4420">
<rect width="16" height="16" fill="white"/>
</clipPath>
</defs>
</svg>
