<svg width="16" height="16" viewBox="0 0 16 16" fill="none" xmlns="http://www.w3.org/2000/svg">
<path d="M14.1889 12.4938C13.8521 11.6959 13.3632 10.9711 12.7497 10.3599C12.1379 9.74685 11.4133 9.25809 10.6157 8.92059C10.6086 8.91702 10.6014 8.91523 10.5943 8.91166C11.7068 8.10809 12.43 6.79916 12.43 5.32237C12.43 2.87594 10.4479 0.893799 8.00144 0.893799C5.55501 0.893799 3.57287 2.87594 3.57287 5.32237C3.57287 6.79916 4.29608 8.10809 5.40858 8.91344C5.40144 8.91702 5.3943 8.9188 5.38715 8.92237C4.58715 9.25987 3.8693 9.7438 3.25323 10.3617C2.64021 10.9734 2.15145 11.698 1.81394 12.4956C1.48237 13.2764 1.30355 14.1135 1.28715 14.9617C1.28668 14.9807 1.29002 14.9997 1.29699 15.0174C1.30395 15.0352 1.3144 15.0513 1.32771 15.065C1.34103 15.0786 1.35694 15.0895 1.3745 15.0969C1.39207 15.1043 1.41095 15.1081 1.43001 15.1081H2.50144C2.58001 15.1081 2.64251 15.0456 2.6443 14.9688C2.68001 13.5902 3.23358 12.2992 4.21215 11.3206C5.22465 10.3081 6.5693 9.75094 8.00144 9.75094C9.43358 9.75094 10.7782 10.3081 11.7907 11.3206C12.7693 12.2992 13.3229 13.5902 13.3586 14.9688C13.3604 15.0474 13.4229 15.1081 13.5014 15.1081H14.5729C14.5919 15.1081 14.6108 15.1043 14.6284 15.0969C14.6459 15.0895 14.6619 15.0786 14.6752 15.065C14.6885 15.0513 14.6989 15.0352 14.7059 15.0174C14.7129 14.9997 14.7162 14.9807 14.7157 14.9617C14.6979 14.1081 14.5211 13.2777 14.1889 12.4938ZM8.00144 8.3938C7.1818 8.3938 6.41037 8.07416 5.83001 7.4938C5.24965 6.91344 4.93001 6.14201 4.93001 5.32237C4.93001 4.50273 5.24965 3.7313 5.83001 3.15094C6.41037 2.57058 7.1818 2.25094 8.00144 2.25094C8.82108 2.25094 9.59251 2.57058 10.1729 3.15094C10.7532 3.7313 11.0729 4.50273 11.0729 5.32237C11.0729 6.14201 10.7532 6.91344 10.1729 7.4938C9.59251 8.07416 8.82108 8.3938 8.00144 8.3938Z" fill="#BFBFBF"/>
</svg>
